<?xml version="1.0" standalone="no"?>
<!DOCTYPE svg PUBLIC "-//W3C//DTD SVG 20010904//EN"
 "http://www.w3.org/TR/2001/REC-SVG-20010904/DTD/svg10.dtd">
<svg version="1.0" xmlns="http://www.w3.org/2000/svg"
 width="785.000000pt" height="155.000000pt" viewBox="0 0 785.000000 155.000000"
 preserveAspectRatio="xMidYMid meet">

<g transform="translate(0.000000,155.000000) scale(0.100000,-0.100000)"
fill="#000000" stroke="none">
<path d="M1282 1543 c-7 -3 -31 -33 -54 -66 -50 -76 -94 -124 -131 -143 -27
-14 -30 -14 -63 15 -72 63 -109 76 -224 76 -101 0 -108 -1 -168 -34 -103 -56
-172 -154 -172 -244 0 -26 -3 -47 -7 -47 -5 0 -35 9 -68 19 -129 40 -215 36
-281 -14 -26 -20 -32 -32 -36 -76 -4 -43 -11 -55 -37 -76 -25 -19 -31 -32 -31
-61 0 -20 9 -52 20 -70 25 -41 25 -42 -6 -120 -28 -71 -27 -107 7 -173 36 -71
123 -122 177 -105 11 4 51 31 89 61 37 30 74 55 81 55 6 0 12 -12 12 -27 0
-44 53 -145 95 -182 22 -19 64 -46 95 -60 47 -22 68 -26 150 -25 97 0 155 17
205 59 24 20 17 17 -58 -19 -223 -107 -502 57 -472 278 13 103 82 198 177 246
53 26 72 30 139 30 100 0 171 -26 239 -87 73 -66 110 -147 95 -212 -5 -23 -14
-31 -43 -39 -24 -6 -29 -10 -15 -11 12 -1 59 13 105 30 84 31 218 51 218 32 0
-5 -19 -23 -42 -40 -24 -17 -53 -48 -65 -70 l-22 -40 30 -29 c85 -80 77 -179
-21 -282 -54 -56 -97 -58 -145 -8 -33 35 -52 87 -80 219 -9 42 -20 77 -25 77
-4 0 -4 -15 0 -32 5 -18 18 -70 29 -116 12 -45 27 -96 36 -111 17 -34 70 -81
91 -81 8 0 23 -9 34 -20 11 -11 26 -20 33 -19 6 0 2 5 -10 11 -25 12 -30 28
-9 28 17 0 99 87 120 128 18 36 21 123 5 155 -6 12 -25 37 -42 54 l-31 33 30
41 c16 22 43 49 60 60 l32 20 17 -71 17 -70 47 0 c55 0 101 -35 101 -76 0 -76
-117 -197 -267 -275 -32 -16 -47 -27 -33 -23 47 11 165 88 216 139 91 91 118
175 69 213 -14 11 -25 22 -25 25 0 3 26 7 57 9 l58 3 59 109 c33 61 61 106 63
100 2 -5 21 -54 41 -109 l37 -100 123 0 124 0 199 414 c109 227 199 419 199
425 0 11 -267 76 -311 76 -10 0 -45 -71 -104 -210 -49 -116 -92 -210 -96 -210
-4 0 -15 12 -25 28 -10 15 -42 60 -72 101 l-54 73 -99 -98 c-65 -65 -100 -93
-103 -83 -2 8 -9 28 -14 46 -7 22 -7 41 0 61 15 39 4 89 -36 154 -18 31 -36
72 -40 91 -4 19 -18 46 -32 60 -24 25 -25 27 -9 51 16 25 16 28 -6 73 -34 69
-98 106 -147 86z m-493 -207 c15 -16 21 -33 19 -52 -2 -24 -8 -29 -31 -29 -22
-1 -33 -10 -52 -42 -31 -51 -44 -56 -86 -35 -69 36 -63 75 21 141 60 48 96 52
129 17z m135 -22 c41 -16 42 -74 2 -74 -28 0 -46 18 -46 45 0 33 12 41 44 29z
m252 -196 c4 -6 37 -131 74 -278 l67 -267 -73 -6 c-40 -4 -95 -16 -123 -27
-29 -11 -54 -20 -56 -20 -2 0 -1 15 2 34 12 74 -52 186 -133 237 l-36 22 66
35 c111 58 186 163 186 259 0 24 14 31 26 11z m-946 -28 c21 -11 80 -92 80
-109 0 -15 -40 -26 -87 -22 -31 2 -55 -4 -91 -24 -53 -28 -69 -51 -74 -100
l-3 -30 -18 32 c-26 48 -22 75 18 110 28 25 35 39 35 68 0 67 77 109 140 75z
m27 -155 c12 -8 41 -43 66 -78 35 -48 103 -111 134 -122 1 0 -11 -27 -27 -59
-16 -32 -32 -73 -36 -92 -3 -19 -12 -34 -19 -34 -6 0 -30 -13 -51 -30 -21 -16
-57 -43 -78 -60 -46 -36 -78 -38 -128 -7 -49 29 -84 78 -98 137 -11 44 -9 53
19 120 17 40 31 90 31 112 0 54 13 74 68 103 55 28 89 31 119 10z m53 -6 c0
-18 -2 -19 -15 -9 -8 7 -15 16 -15 21 0 5 7 9 15 9 9 0 15 -9 15 -21z m293
-96 c-35 -13 -101 -56 -115 -77 -4 -6 -8 -8 -8 -4 0 4 20 39 45 78 l45 71 35
-28 35 -28 -37 -12z"/>
<path d="M285 630 c3 -5 27 -10 53 -10 34 0 43 3 32 10 -20 13 -93 13 -85 0z"/>
<path d="M3870 1094 c-145 -39 -241 -147 -290 -326 -22 -82 -130 -582 -130
-605 0 -11 15 -13 73 -11 l72 3 32 125 c18 69 32 126 32 128 1 1 18 -6 39 -17
119 -61 309 -16 413 96 77 83 137 260 126 372 -5 62 -42 148 -80 190 -54 59
-169 77 -287 45z m241 -45 c88 -68 120 -205 79 -340 -58 -193 -144 -281 -302
-310 -80 -15 -145 -6 -193 27 -21 14 -42 23 -47 22 -6 -2 -25 -62 -42 -133
l-32 -130 -47 -3 c-45 -3 -47 -2 -42 20 3 13 30 140 60 283 75 352 91 398 168
482 72 78 163 114 283 110 70 -2 85 -6 115 -28z"/>
<path d="M3889 985 c-103 -33 -178 -159 -187 -316 -5 -94 5 -124 52 -168 31
-29 114 -40 169 -22 80 27 152 137 182 281 31 146 -10 222 -127 235 -24 3 -64
-2 -89 -10z m141 -34 c55 -29 68 -77 48 -180 -39 -193 -136 -298 -253 -271
-97 22 -123 119 -75 280 43 146 176 227 280 171z"/>
<path d="M4580 1094 c-133 -36 -230 -138 -279 -294 -28 -91 -142 -630 -135
-641 3 -5 36 -9 74 -9 l68 0 27 112 c14 62 28 121 31 130 4 15 8 15 49 -3 123
-54 280 -22 389 81 83 78 146 235 146 362 0 109 -63 222 -144 259 -50 23 -148
24 -226 3z m214 -28 c81 -34 131 -142 124 -265 -10 -157 -97 -310 -208 -366
-121 -60 -226 -58 -328 6 -30 19 -32 16 -66 -135 l-29 -126 -48 0 c-40 0 -47
3 -43 18 2 9 31 145 64 302 65 304 94 388 160 463 39 45 107 87 169 103 62 17
164 17 205 0z"/>
<path d="M4608 988 c-109 -29 -198 -183 -198 -343 0 -113 56 -175 160 -175
107 0 184 77 231 230 31 101 32 194 2 236 -39 54 -113 74 -195 52z m127 -32
c63 -27 79 -96 50 -211 -46 -179 -138 -270 -248 -245 -63 14 -90 48 -95 121
-16 223 138 399 293 335z"/>
<path d="M2755 1093 c-11 -2 -37 -11 -57 -19 -33 -12 -38 -12 -38 1 0 12 -15
15 -74 15 -68 0 -74 -2 -79 -22 -3 -13 -36 -169 -72 -348 -36 -179 -68 -333
-71 -342 -5 -16 3 -18 70 -18 62 0 76 3 80 18 3 9 21 93 41 187 20 93 47 194
61 225 44 95 117 154 208 166 41 6 44 9 50 43 10 60 7 89 -10 95 -17 7 -78 6
-109 -1z m-125 -48 c0 -30 9 -31 62 -4 23 12 68 24 100 27 l59 5 -3 -39 c-3
-33 -7 -40 -33 -48 -117 -34 -198 -103 -234 -200 -11 -30 -37 -133 -57 -230
l-38 -176 -43 0 c-30 0 -43 4 -43 14 0 15 128 644 135 664 3 7 23 12 50 12 41
0 45 -2 45 -25z"/>
<path d="M5250 1087 c-119 -28 -191 -85 -239 -188 -56 -122 -79 -326 -45 -407
19 -47 58 -88 109 -115 60 -31 194 -28 268 6 62 28 105 78 114 131 l6 36 -70
0 c-65 0 -71 -2 -91 -29 -42 -58 -153 -47 -186 18 -9 16 -16 50 -16 76 l0 45
230 0 230 0 10 25 c20 53 31 196 20 252 -13 62 -56 118 -107 140 -48 19 -169
25 -233 10z m226 -40 c81 -42 106 -120 83 -263 l-14 -89 -235 -5 -235 -5 -3
-35 c-10 -104 30 -176 106 -190 60 -11 112 3 144 39 22 25 36 31 68 31 47 0
50 -12 17 -61 -36 -55 -105 -83 -207 -83 -93 0 -125 11 -172 61 -38 40 -48 74
-48 166 0 150 55 316 123 373 40 34 101 64 150 74 59 13 188 5 223 -13z"/>
<path d="M5240 977 c-51 -16 -114 -84 -134 -145 -10 -28 -15 -56 -11 -62 4 -6
76 -10 190 -10 l185 0 6 25 c9 35 -3 102 -24 137 -33 57 -128 82 -212 55z
m145 -33 c39 -18 65 -66 65 -118 l0 -36 -165 0 -165 0 15 38 c24 58 48 85 95
110 52 26 109 28 155 6z"/>
<path d="M5975 1093 c-11 -2 -37 -11 -57 -19 -33 -12 -38 -12 -38 1 0 12 -15
15 -75 15 -41 0 -75 -2 -75 -4 0 -2 -31 -158 -70 -346 -38 -188 -70 -351 -70
-361 0 -18 6 -20 72 -17 l71 3 43 197 c47 217 71 277 137 334 40 33 112 64
153 64 16 0 23 8 28 31 11 56 7 96 -10 103 -17 7 -78 6 -109 -1z m-125 -48 c0
-30 9 -31 60 -5 22 11 67 23 100 27 l60 6 0 -40 c0 -40 -1 -41 -46 -52 -100
-25 -163 -76 -209 -168 -20 -41 -105 -383 -105 -425 0 -5 -20 -8 -45 -8 -25 0
-45 5 -45 11 0 12 129 648 135 667 3 7 22 12 50 12 41 0 45 -2 45 -25z"/>
<path d="M3132 1075 c-60 -19 -106 -57 -132 -110 -31 -63 -23 -75 47 -75 51 0
61 4 90 32 30 29 40 33 93 33 51 0 64 -4 84 -25 13 -14 27 -39 31 -56 l6 -32
-168 -3 c-167 -4 -168 -4 -223 -35 -75 -42 -113 -103 -118 -190 -6 -88 4 -129
40 -170 106 -121 342 -114 473 13 99 96 171 356 134 486 -16 58 -72 114 -132
132 -62 18 -167 18 -225 0z m226 -31 c51 -21 90 -61 102 -103 25 -90 1 -244
-55 -358 -44 -90 -82 -128 -165 -167 -55 -26 -76 -30 -140 -30 -153 2 -233 70
-234 200 0 85 33 148 99 189 48 30 49 30 221 33 127 3 176 7 184 17 16 19 -4
93 -33 122 -50 51 -163 50 -216 -1 -20 -20 -38 -26 -69 -26 l-42 0 20 40 c34
67 103 99 218 100 44 0 87 -6 110 -16z"/>
<path d="M3028 719 c-95 -50 -103 -190 -14 -233 38 -18 149 -22 190 -6 70 26
137 122 152 219 l7 41 -149 0 c-129 -1 -154 -4 -186 -21z m296 -36 c-19 -81
-60 -140 -119 -171 -63 -33 -201 -12 -219 33 -11 28 -7 75 9 105 26 51 56 59
203 60 l132 0 -6 -27z"/>
<path d="M6173 811 c-109 -37 -192 -126 -213 -228 -27 -126 46 -216 176 -217
223 0 386 289 235 417 -31 26 -88 47 -126 47 -11 -1 -43 -9 -72 -19z m126 -75
c72 -38 66 -172 -11 -242 -58 -53 -158 -72 -206 -38 -29 20 -52 66 -52 101 1
65 60 150 125 179 40 18 109 17 144 0z"/>
<path d="M6905 808 c-8 -25 -105 -417 -105 -428 0 -5 15 -10 34 -10 l34 0 51
208 c29 114 54 215 57 225 4 14 -1 17 -31 17 -19 0 -38 -6 -40 -12z"/>
<path d="M7050 808 c0 -7 -3 -23 -6 -35 -6 -21 -3 -23 30 -23 20 0 36 1 36 3
0 1 4 17 9 35 l10 32 -40 0 c-24 0 -39 -5 -39 -12z"/>
<path d="M708 793 c7 -3 16 -2 19 1 4 3 -2 6 -13 5 -11 0 -14 -3 -6 -6z"/>
<path d="M6633 699 c-18 -5 -35 -14 -38 -19 -10 -16 -25 -12 -19 5 5 12 -2 15
-29 15 l-35 0 -36 -147 c-20 -82 -39 -156 -42 -166 -5 -16 -1 -18 32 -15 l38
3 22 88 c12 48 28 101 34 118 13 31 55 59 88 59 23 0 52 -30 52 -54 0 -15 -30
-144 -46 -199 -5 -16 -1 -18 32 -15 l38 3 28 115 c16 63 26 127 23 141 -13 57
-77 88 -142 68z"/>
<path d="M7293 699 c-18 -5 -35 -14 -38 -19 -9 -15 -25 -12 -25 5 0 10 -10 15
-30 15 -33 0 -26 17 -79 -197 -17 -67 -31 -124 -31 -127 0 -3 16 -6 35 -6 38
0 32 -11 70 140 20 80 35 103 75 120 23 10 37 10 55 2 21 -10 25 -19 25 -54 0
-24 -9 -77 -20 -118 -11 -41 -20 -78 -20 -82 0 -5 16 -8 35 -8 31 0 35 3 44
38 34 130 41 164 41 200 0 72 -61 113 -137 91z"/>
<path d="M7636 695 c-125 -44 -194 -186 -134 -275 28 -42 85 -64 141 -55 42 8
123 59 145 93 14 21 13 22 -20 22 -21 0 -46 -9 -62 -21 -15 -12 -44 -23 -66
-26 -32 -5 -43 -1 -65 21 -44 44 -31 51 110 54 88 2 132 7 137 15 4 7 8 33 8
59 0 57 -34 103 -88 118 -47 13 -58 12 -106 -5z m111 -81 c28 -38 18 -44 -82
-44 -52 0 -95 4 -95 8 0 13 31 39 60 51 35 15 102 6 117 -15z"/>
<path d="M6984 535 l-41 -165 36 0 36 0 41 165 41 165 -36 0 -36 0 -41 -165z"/>
<path d="M591 564 c0 -11 3 -14 6 -6 3 7 2 16 -1 19 -3 4 -6 -2 -5 -13z"/>
<path d="M1054 315 c22 -19 44 -35 50 -35 12 0 -39 45 -69 61 -11 5 -2 -6 19
-26z"/>
</g>
</svg>
